# exported from Matrix Optimizer III
# http://modular-audio-graphics.com

# 447 vertices (originally 504)
v -0.25417 -0.188684 -10.9486
v -0.25417 -0.188684 -10.9486
v 0.25417 -0.188684 -10.9486
v 0.25417 0.188683 -10.9486
v -0.25417 0.188683 -10.9486
v 0.25417 0.188683 -10.9486
v -0.25417 -4.01552 -10.1874
v 0.25417 -4.01552 -10.1874
v 0.25417 -4.01552 -10.1874
v -0.25417 4.01552 -10.1874
v -0.25417 4.01552 -10.1874
v 0.25417 4.01552 -10.1874
v -0.21746 -4.36911 -10.0504
v -0.21746 -4.36911 -10.0504
v 0.21746 -4.36911 -10.0504
v -0.21746 4.36911 -10.0504
v 0.21746 4.36911 -10.0504
v 0.21746 4.36911 -10.0504
v 5.25417 -0.188684 -9.60883
v -5.25417 -0.188684 -9.60883
v 5.25417 -0.188684 -9.60883
v -5.25417 0.188683 -9.60883
v 5.25417 0.188683 -9.60883
v -5.25417 0.188683 -9.60883
v 5.6944 -0.188684 -9.35466
v -5.6944 -0.188684 -9.35466
v -5.6944 -0.188684 -9.35466
v -5.6944 0.188683 -9.35466
v 5.6944 0.188683 -9.35466
v 5.6944 0.188683 -9.35466
v -4.87357 -4.01552 -8.94961
v 4.87357 -4.01552 -8.94961
v -4.87357 4.01552 -8.94961
v 4.87357 4.01552 -8.94961
v -4.83686 -4.36911 -8.8126
v 4.83686 -4.36911 -8.8126
v -4.83686 4.36911 -8.8126
v 4.83686 4.36911 -8.8126
v 5.3138 -4.01552 -8.69544
v 5.3138 -4.01552 -8.69544
v 5.3138 4.01552 -8.69544
v -5.3138 -4.01552 -8.69544
v -5.3138 4.01552 -8.69544
v -5.21351 -4.36911 -8.59514
v 5.21351 -4.36911 -8.59514
v -5.21351 4.36911 -8.59514
v 5.21351 4.36911 -8.59514
v -0.21746 -7.61334 -7.88264
v 0.21746 -7.61334 -7.88264
v 0.21746 -7.61334 -7.88264
v -0.21746 7.61334 -7.88264
v 0.21746 7.61334 -7.88264
v -0.21746 7.61334 -7.88264
v -0.147242 -7.89347 -7.62058
v -0.147242 -7.89347 -7.62058
v 0.147242 -7.89347 -7.62058
v -0.147242 7.89347 -7.62058
v 0.147242 7.89347 -7.62058
v 0.147242 7.89347 -7.62058
v -3.75299 -7.61334 -6.9353
v 3.75299 -7.61334 -6.9353
v 3.75299 7.61334 -6.9353
v -3.75299 7.61334 -6.9353
v 3.75299 7.61334 -6.9353
v -4.12965 -7.61334 -6.71784
v 4.12965 -7.61334 -6.71784
v 4.12964 -7.61334 -6.71784
v 4.12965 7.61334 -6.71784
v -4.12965 7.61334 -6.71784
v -3.68278 -7.89347 -6.67324
v 3.68278 -7.89347 -6.67324
v -3.68278 7.89347 -6.67324
v 3.68278 7.89347 -6.67324
v -3.93781 -7.89347 -6.526
v -3.93781 -7.89347 -6.526
v 3.93781 -7.89347 -6.526
v -3.93781 7.89347 -6.526
v 3.93781 7.89347 -6.526
v 3.93781 7.89347 -6.526
v 9.35466 -0.188684 -5.69441
v 9.35466 -0.188684 -5.69441
v 9.35466 0.188683 -5.69441
v -9.35466 -0.188684 -5.6944
v -9.35466 0.188683 -5.6944
v -9.35466 0.188683 -5.6944
v 8.69544 -4.01552 -5.3138
v 8.69544 4.01552 -5.3138
v -8.69544 -4.01552 -5.3138
v -8.69544 -4.01552 -5.3138
v -8.69544 4.01552 -5.3138
v 9.60883 -0.188684 -5.25417
v 9.60883 0.188683 -5.25417
v 9.60883 0.188683 -5.25417
v -9.60883 -0.188684 -5.25417
v -9.60883 -0.188684 -5.25417
v -9.60883 0.188683 -5.25417
v 8.59514 -4.36911 -5.21351
v 8.59514 4.36911 -5.21351
v -8.59514 -4.36911 -5.21351
v -8.59514 4.36911 -5.21351
v 8.94961 -4.01552 -4.87357
v 8.94961 4.01552 -4.87357
v -8.94961 -4.01552 -4.87357
v -8.94961 4.01552 -4.87357
v 8.8126 -4.36911 -4.83686
v 8.8126 4.36911 -4.83686
v -8.8126 -4.36911 -4.83686
v -8.8126 4.36911 -4.83686
v -0.147242 -10.0612 -4.37635
v 0.147242 -10.0612 -4.37635
v 0.147242 -10.0612 -4.37635
v -0.147242 10.0612 -4.37635
v -0.147242 10.0612 -4.37635
v 0.147242 10.0612 -4.37635
v 6.71784 -7.61334 -4.12965
v 6.71784 7.61334 -4.12965
v 6.71784 7.61334 -4.12965
v -6.71784 -7.61334 -4.12964
v -6.71784 7.61334 -4.12964
v -0.0522031 -10.2182 -4.02166
v 0.052203 -10.2182 -4.02166
v -0.0522031 10.2182 -4.02166
v 0.052203 10.2182 -4.02166
v 6.526 -7.89347 -3.93781
v 6.526 -7.89347 -3.93781
v 6.526 7.89347 -3.93781
v -6.526 -7.89347 -3.9378
v -6.526 7.89347 -3.9378
v -2.06066 -10.0612 -3.86365
v 2.06066 -10.0612 -3.86365
v -2.06066 10.0612 -3.86365
v 2.06066 10.0612 -3.86365
v 2.06066 10.0612 -3.86365
v 6.9353 -7.61334 -3.75299
v 6.9353 7.61334 -3.75299
v -6.9353 -7.61334 -3.75299
v -6.9353 7.61334 -3.75299
v -6.9353 7.61334 -3.75299
v 2.31569 -10.0612 -3.71641
v -2.31569 -10.0612 -3.71641
v 2.31569 -10.0612 -3.71641
v -2.31569 10.0612 -3.71641
v 2.31569 10.0612 -3.71641
v 6.67324 -7.89347 -3.68278
v 6.67324 7.89347 -3.68278
v 6.67324 7.89347 -3.68278
v -6.67324 -7.89347 -3.68277
v -6.67324 7.89347 -3.68277
v -1.96562 -10.2182 -3.50896
v 1.96562 -10.2182 -3.50896
v -1.96562 10.2182 -3.50896
v 1.96562 10.2182 -3.50896
v -2.05604 -10.2182 -3.45676
v 2.05604 -10.2182 -3.45676
v -2.05604 10.2182 -3.45676
v 2.05604 10.2182 -3.45676
v 3.71641 -10.0612 -2.31569
v 3.71641 10.0612 -2.31569
v 3.71641 10.0612 -2.31569
v -3.71641 -10.0612 -2.31569
v -3.71641 -10.0612 -2.31569
v -3.71641 10.0612 -2.31569
v 3.86365 -10.0612 -2.06066
v 3.86365 10.0612 -2.06066
v -3.86365 -10.0612 -2.06066
v -3.86365 10.0612 -2.06066
v 3.45676 -10.2182 -2.05604
v 3.45676 10.2182 -2.05604
v -3.45676 -10.2182 -2.05604
v -3.45676 10.2182 -2.05604
v 3.50896 -10.2182 -1.96562
v 3.50896 10.2182 -1.96562
v -3.50896 -10.2182 -1.96562
v -3.50896 10.2182 -1.96562
v 10.9486 -0.188684 -0.254171
v 10.9486 0.188683 -0.254171
v 10.1874 4.01552 -0.254171
v 10.9486 -0.188684 -0.254171
v 10.1874 4.01552 -0.254171
v 10.1874 -4.01552 -0.254171
v -10.9486 0.188683 -0.25417
v -10.1874 4.01552 -0.25417
v -10.1874 -4.01552 -0.25417
v -10.1874 -4.01552 -0.25417
v -10.9486 -0.188684 -0.25417
v -10.9486 0.188683 -0.25417
v 10.0504 -4.36911 -0.217461
v 10.0504 4.36911 -0.217461
v 10.0504 -4.36911 -0.217461
v 7.88264 7.61334 -0.217461
v 7.88264 -7.61334 -0.217461
v 7.88264 7.61334 -0.217461
v -7.88264 -7.61334 -0.21746
v -10.0504 4.36911 -0.21746
v -7.88264 7.61334 -0.21746
v -7.88264 -7.61334 -0.21746
v -10.0504 -4.36911 -0.21746
v -10.0504 4.36911 -0.21746
v -0.052203 10.9794 -0.194824
v 0.052203 10.9794 -0.194824
v -0.052203 -10.9794 -0.194824
v 0.052203 -10.9794 -0.194824
v 7.62058 -7.89347 -0.147243
v 7.62058 -7.89347 -0.147243
v 7.62058 7.89347 -0.147243
v 4.37635 -10.0612 -0.147242
v 4.37635 10.0612 -0.147242
v 4.37635 10.0612 -0.147242
v -4.37635 -10.0612 -0.147242
v -7.62058 -7.89347 -0.147242
v -4.37635 -10.0612 -0.147242
v -7.62058 7.89347 -0.147242
v -7.62058 7.89347 -0.147242
v -4.37635 10.0612 -0.147242
v 0.142621 10.9794 -0.142621
v -0.142621 10.9794 -0.142621
v 0.142621 -10.9794 -0.142621
v -0.142621 -10.9794 -0.142621
v 4.02166 10.2182 -0.0522034
v 4.02166 -10.2182 -0.0522034
v 0.194824 10.9794 -0.052203
v 0.194824 -10.9794 -0.052203
v -4.02166 10.2182 -0.052203
v -0.194824 10.9794 -0.052203
v -0.194824 -10.9794 -0.052203
v -4.02166 -10.2182 -0.052203
v 4.02166 -10.2182 0.0522027
v 4.02166 10.2182 0.0522027
v 0.194824 -10.9794 0.052203
v 0.194824 10.9794 0.052203
v -0.194824 -10.9794 0.052203
v -4.02166 -10.2182 0.052203
v -4.02166 10.2182 0.052203
v -0.194824 10.9794 0.052203
v 0.142621 -10.9794 0.142621
v -0.142621 -10.9794 0.142621
v -0.142621 10.9794 0.142621
v 0.142621 10.9794 0.142621
v 7.62058 7.89347 0.147241
v 7.62058 -7.89347 0.147241
v 7.62058 7.89347 0.147241
v 4.37635 10.0612 0.147242
v 4.37635 -10.0612 0.147242
v 4.37635 -10.0612 0.147242
v -4.37635 10.0612 0.147242
v -7.62058 7.89347 0.147242
v -4.37635 10.0612 0.147242
v -4.37635 -10.0612 0.147242
v -7.62058 -7.89347 0.147242
v -7.62058 -7.89347 0.147242
v -0.052203 -10.9794 0.194824
v 0.052203 -10.9794 0.194824
v -0.052203 10.9794 0.194824
v 0.052203 10.9794 0.194824
v 10.0504 -4.36911 0.217459
v 10.0504 4.36911 0.217459
v 10.0504 4.36911 0.217459
v 7.88264 -7.61334 0.217459
v 7.88264 -7.61334 0.217459
v 7.88264 7.61334 0.217459
v -10.0504 -4.36911 0.21746
v -10.0504 4.36911 0.21746
v -7.88264 7.61334 0.21746
v -7.88264 -7.61334 0.21746
v -10.0504 -4.36911 0.21746
v -7.88264 7.61334 0.21746
v 10.9486 0.188683 0.254169
v 10.1874 -4.01552 0.254169
v 10.9486 -0.188684 0.254169
v 10.9486 0.188683 0.254169
v 10.1874 4.01552 0.254169
v 10.1874 -4.01552 0.254169
v -10.1874 -4.01552 0.25417
v -10.9486 -0.188684 0.25417
v -10.1874 4.01552 0.25417
v -10.9486 -0.188684 0.25417
v -10.9486 0.188683 0.25417
v -10.1874 4.01552 0.25417
v -3.50896 10.2182 1.96562
v -3.50896 -10.2182 1.96562
v 3.50896 10.2182 1.96562
v 3.50896 -10.2182 1.96562
v -3.45676 10.2182 2.05604
v -3.45676 -10.2182 2.05604
v 3.45676 -10.2182 2.05604
v 3.45676 10.2182 2.05604
v -3.86365 -10.0612 2.06066
v -3.86365 10.0612 2.06066
v 3.86365 10.0612 2.06066
v 3.86365 -10.0612 2.06066
v 3.86365 10.0612 2.06066
v -3.71641 10.0612 2.31569
v -3.71641 -10.0612 2.31569
v 3.71641 10.0612 2.31569
v 3.71641 -10.0612 2.31569
v -2.05604 10.2182 3.45676
v 2.05604 10.2182 3.45676
v -2.05604 -10.2182 3.45676
v 2.05604 -10.2182 3.45676
v -1.96562 10.2182 3.50896
v 1.96562 10.2182 3.50896
v -1.96562 -10.2182 3.50896
v 1.96562 -10.2182 3.50896
v -6.67324 7.89347 3.68278
v -6.67324 -7.89347 3.68278
v 6.67324 -7.89347 3.68278
v 6.67324 7.89347 3.68278
v -2.31569 10.0612 3.71641
v 2.31569 10.0612 3.71641
v -2.31569 -10.0612 3.71641
v 2.31569 -10.0612 3.71641
v -2.31569 -10.0612 3.71641
v -6.9353 -7.61334 3.75299
v -6.9353 7.61334 3.75299
v 6.9353 7.61334 3.75299
v 6.9353 -7.61334 3.75299
v 6.9353 7.61334 3.75299
v -2.06066 10.0612 3.86365
v 2.06066 10.0612 3.86365
v -2.06066 -10.0612 3.86365
v 2.06066 -10.0612 3.86365
v -6.526 -7.89347 3.93781
v -6.526 7.89347 3.93781
v -6.526 -7.89347 3.93781
v 6.526 7.89347 3.93781
v 6.526 -7.89347 3.93781
v 6.526 7.89347 3.93781
v -0.0522029 10.2182 4.02166
v 0.0522032 10.2182 4.02166
v -0.0522028 -10.2182 4.02166
v 0.0522032 -10.2182 4.02166
v -6.71784 -7.61334 4.12965
v -6.71784 7.61334 4.12965
v 6.71784 -7.61334 4.12965
v -6.71784 7.61334 4.12965
v 6.71784 7.61334 4.12965
v -0.147242 10.0612 4.37635
v 0.147242 10.0612 4.37635
v 0.147242 10.0612 4.37635
v -0.147242 -10.0612 4.37635
v -0.147242 -10.0612 4.37635
v 0.147242 -10.0612 4.37635
v -8.8126 -4.36911 4.83686
v -8.8126 4.36911 4.83686
v 8.8126 4.36911 4.83686
v 8.8126 -4.36911 4.83686
v -8.94961 -4.01552 4.87357
v -8.94961 4.01552 4.87357
v 8.94961 4.01552 4.87357
v 8.94961 -4.01552 4.87357
v -8.59514 4.36911 5.21351
v -8.59514 -4.36911 5.21351
v 8.59514 4.36911 5.21351
v 8.59514 -4.36911 5.21351
v -9.60883 -0.188684 5.25417
v -9.60883 0.188683 5.25417
v -9.60883 0.188683 5.25417
v 9.60883 -0.188684 5.25417
v 9.60883 -0.188684 5.25417
v 9.60883 0.188683 5.25417
v -8.69544 4.01552 5.3138
v -8.69544 -4.01552 5.3138
v 8.69544 4.01552 5.3138
v 8.69544 -4.01552 5.3138
v -9.35466 -0.188684 5.69441
v -9.35466 0.188683 5.69441
v -9.35466 -0.188684 5.69441
v 9.35466 -0.188684 5.69441
v 9.35466 0.188683 5.69441
v 9.35466 0.188683 5.69441
v 3.93781 -7.89347 6.526
v 3.93781 7.89347 6.526
v -3.93781 -7.89347 6.526
v -3.93781 7.89347 6.526
v 3.68278 -7.89347 6.67324
v 3.68278 7.89347 6.67324
v -3.68278 -7.89347 6.67324
v -3.68278 7.89347 6.67324
v 4.12965 -7.61334 6.71784
v 4.12965 7.61334 6.71784
v -4.12965 -7.61334 6.71784
v -4.12965 7.61334 6.71784
v 3.75299 -7.61334 6.9353
v 3.75299 7.61334 6.9353
v -3.75299 -7.61334 6.9353
v -3.75299 7.61334 6.9353
v -3.75299 7.61334 6.9353
v -0.147242 -7.89347 7.62058
v 0.147242 -7.89347 7.62058
v 0.147242 -7.89347 7.62058
v -0.147242 7.89347 7.62058
v -0.147242 7.89347 7.62058
v 0.147242 7.89347 7.62058
v -0.21746 -7.61334 7.88264
v -0.21746 -7.61334 7.88264
v 0.21746 -7.61334 7.88264
v -0.21746 7.61334 7.88264
v 0.21746 7.61334 7.88264
v 0.21746 7.61334 7.88264
v -5.21351 -4.36911 8.59514
v 5.21351 -4.36911 8.59514
v -5.21351 4.36911 8.59514
v 5.21351 4.36911 8.59514
v 5.3138 4.01552 8.69544
v 5.3138 4.01552 8.69544
v -5.3138 -4.01552 8.69544
v -5.3138 4.01552 8.69544
v -5.3138 -4.01552 8.69544
v 5.3138 -4.01552 8.69544
v 4.83686 4.36911 8.8126
v -4.83686 -4.36911 8.8126
v -4.83686 -4.36911 8.8126
v 4.83686 -4.36911 8.8126
v -4.83686 4.36911 8.8126
v 4.87357 4.01552 8.94961
v -4.87357 -4.01552 8.94961
v 4.87357 -4.01552 8.94961
v -4.87357 4.01552 8.94961
v 5.69441 -0.188684 9.35466
v 5.69441 0.188683 9.35466
v -5.69441 -0.188684 9.35466
v -5.69441 0.188683 9.35466
v -5.69441 0.188683 9.35466
v 5.25417 -0.188684 9.60883
v 5.25417 0.188683 9.60883
v 5.25417 0.188683 9.60883
v -5.25417 -0.188684 9.60883
v -5.25417 -0.188684 9.60883
v -5.25417 0.188683 9.60883
v -0.21746 -4.36911 10.0504
v 0.21746 -4.36911 10.0504
v 0.21746 -4.36911 10.0504
v -0.21746 4.36911 10.0504
v -0.21746 4.36911 10.0504
v 0.21746 4.36911 10.0504
v -0.25417 4.01552 10.1874
v 0.25417 4.01552 10.1874
v 0.254171 4.01552 10.1874
v -0.25417 -4.01552 10.1874
v -0.25417 -4.01552 10.1874
v 0.25417 -4.01552 10.1874
v -0.25417 -0.188684 10.9486
v 0.254171 -0.188684 10.9486
v 0.254171 -0.188684 10.9486
v -0.25417 0.188683 10.9486
v -0.25417 0.188683 10.9486
v 0.254171 0.188683 10.9486

# 166 normals
vn 0.25417 -0.188683 -0.948576
vn -0.25417 -0.188683 -0.948576
vn -0.25417 0.188683 -0.948576
vn 0.25417 0.188683 -0.948576
vn -0.25417 0.188684 -0.948576
vn 0.25417 0.188684 -0.948576
vn -0.25417 -0.188683 -0.948576
vn 0.25417 -0.188683 -0.948576
vn 0.21746 -0.542275 -0.811572
vn 0.21746 0.542275 -0.811572
vn -0.21746 0.542275 -0.811572
vn 0.21746 0.542275 -0.811572
vn 0.21746 -0.542275 -0.811572
vn -0.21746 -0.542275 -0.811572
vn -0.21746 -0.542275 -0.811572
vn -0.21746 0.542275 -0.811572
vn 0.694406 -0.188683 -0.694406
vn 0.694406 -0.188683 -0.694406
vn 0.694406 0.188683 -0.694406
vn -0.694406 -0.188683 -0.694406
vn -0.694406 -0.188683 -0.694406
vn -0.694406 0.188683 -0.694406
vn 0.694406 0.188683 -0.694406
vn -0.694406 0.188684 -0.694406
vn 0.594112 -0.542275 -0.594112
vn -0.594112 -0.542275 -0.594112
vn -0.594112 -0.542275 -0.594112
vn -0.594112 0.542275 -0.594112
vn 0.594112 0.542275 -0.594112
vn 0.594112 0.542275 -0.594112
vn -0.594112 0.542275 -0.594112
vn 0.594112 -0.542275 -0.594112
vn -0.147242 -0.822407 -0.549515
vn 0.147242 -0.822407 -0.549515
vn -0.147242 -0.822407 -0.549515
vn 0.147242 -0.822407 -0.549515
vn 0.147242 0.822407 -0.549515
vn -0.147242 0.822407 -0.549515
vn 0.147242 0.822407 -0.549515
vn -0.147242 0.822407 -0.549515
vn 0.402273 -0.822407 -0.402273
vn -0.402273 0.822407 -0.402273
vn 0.402273 0.822407 -0.402273
vn 0.402273 -0.822407 -0.402273
vn 0.402273 0.822407 -0.402273
vn -0.402273 -0.822407 -0.402273
vn -0.402273 -0.822407 -0.402273
vn -0.402273 0.822407 -0.402273
vn 0.948576 -0.188683 -0.25417
vn 0.948576 0.188684 -0.25417
vn 0.948576 0.188683 -0.25417
vn 0.948576 -0.188683 -0.25417
vn -0.948576 0.188684 -0.25417
vn -0.948576 -0.188683 -0.25417
vn -0.948576 -0.188683 -0.25417
vn -0.948576 0.188684 -0.25417
vn 0.811572 0.542275 -0.21746
vn 0.811572 -0.542275 -0.21746
vn 0.811572 0.542275 -0.21746
vn 0.811572 -0.542275 -0.21746
vn -0.811572 -0.542275 -0.21746
vn -0.811572 0.542275 -0.21746
vn -0.811572 -0.542275 -0.21746
vn -0.811572 0.542275 -0.21746
vn -0.052203 0.979448 -0.194824
vn 0.052203 0.979448 -0.194824
vn -0.052203 -0.979448 -0.194824
vn 0.052203 -0.979448 -0.194824
vn 0.549515 -0.822407 -0.147242
vn 0.549515 -0.822407 -0.147242
vn 0.549515 0.822407 -0.147242
vn 0.549515 0.822407 -0.147242
vn -0.549515 -0.822407 -0.147242
vn -0.549515 -0.822407 -0.147242
vn -0.549515 0.822407 -0.147242
vn -0.549515 0.822407 -0.147242
vn 0.142621 0.979448 -0.142621
vn -0.142621 0.979448 -0.142621
vn 0.142621 -0.979448 -0.142621
vn -0.142621 -0.979448 -0.142621
vn 0.194824 0.979448 -0.052203
vn 0.194824 -0.979448 -0.052203
vn -0.194824 0.979448 -0.052203
vn -0.194824 -0.979448 -0.052203
vn 0.194824 -0.979448 0.052203
vn 0.194824 0.979448 0.052203
vn -0.194824 -0.979448 0.052203
vn -0.194824 0.979448 0.052203
vn 0.142621 -0.979448 0.142621
vn -0.142621 -0.979448 0.142621
vn -0.142621 0.979448 0.142621
vn 0.142621 0.979448 0.142621
vn 0.549515 0.822407 0.147242
vn 0.549515 -0.822407 0.147242
vn -0.549515 0.822407 0.147242
vn 0.549515 -0.822407 0.147242
vn -0.549515 0.822407 0.147242
vn -0.549515 -0.822407 0.147242
vn 0.549515 0.822407 0.147242
vn -0.549515 -0.822407 0.147242
vn -0.052203 -0.979448 0.194824
vn 0.052203 -0.979448 0.194824
vn -0.052203 0.979448 0.194824
vn 0.052203 0.979448 0.194824
vn 0.811572 -0.542275 0.21746
vn 0.811572 0.542275 0.21746
vn -0.811572 -0.542275 0.21746
vn 0.811572 -0.542275 0.21746
vn -0.811572 0.542275 0.21746
vn -0.811572 -0.542275 0.21746
vn 0.811572 0.542275 0.21746
vn -0.811572 0.542275 0.21746
vn 0.948576 -0.188683 0.25417
vn 0.948576 0.188684 0.25417
vn -0.948576 -0.188683 0.25417
vn -0.948576 0.188683 0.25417
vn 0.948576 0.188683 0.25417
vn 0.948576 -0.188683 0.25417
vn -0.948576 -0.188683 0.25417
vn -0.948576 0.188684 0.25417
vn -0.402273 -0.822407 0.402273
vn -0.402273 0.822407 0.402273
vn 0.402273 0.822407 0.402273
vn -0.402273 0.822407 0.402273
vn 0.402273 -0.822407 0.402273
vn 0.402273 0.822407 0.402273
vn 0.402273 -0.822407 0.402273
vn -0.402273 -0.822407 0.402273
vn -0.147242 -0.822407 0.549515
vn 0.147242 0.822407 0.549515
vn -0.147242 0.822407 0.549515
vn -0.147242 -0.822407 0.549515
vn 0.147242 -0.822407 0.549515
vn 0.147242 -0.822407 0.549515
vn -0.147242 0.822407 0.549515
vn 0.147242 0.822407 0.549515
vn -0.594112 -0.542275 0.594112
vn 0.594112 -0.542275 0.594112
vn 0.594112 -0.542275 0.594112
vn -0.594112 0.542275 0.594112
vn -0.594112 -0.542275 0.594112
vn -0.594112 0.542275 0.594112
vn 0.594112 0.542275 0.594112
vn -0.694406 -0.188683 0.694406
vn -0.694406 0.188683 0.694406
vn 0.694406 0.188683 0.694406
vn -0.694406 0.188683 0.694406
vn 0.694406 -0.188683 0.694406
vn 0.694406 0.188683 0.694406
vn -0.694406 -0.188683 0.694406
vn 0.21746 -0.542275 0.811572
vn 0.21746 0.542275 0.811572
vn -0.21746 -0.542275 0.811572
vn 0.21746 -0.542275 0.811572
vn -0.21746 -0.542275 0.811572
vn -0.21746 0.542275 0.811572
vn 0.21746 0.542275 0.811572
vn -0.21746 0.542275 0.811572
vn -0.25417 -0.188683 0.948576
vn -0.25417 -0.188683 0.948576
vn 0.25417 -0.188683 0.948576
vn 0.25417 -0.188683 0.948576
vn -0.25417 0.188683 0.948576
vn 0.25417 0.188683 0.948576
vn 0.25417 0.188684 0.948576
vn -0.25417 0.188684 0.948576

# 86 texture coordinates
vt 0 0
vt 0.0769231 0.111111
vt 0.153846 0.111111
vt 0.230769 0.111111
vt 0.307692 0.111111
vt 0.384615 0.111111
vt 0.461538 0.111111
vt 0.538462 0.111111
vt 0.615385 0.111111
vt 0.692308 0.111111
vt 0.769231 0.111111
vt 0.846154 0.111111
vt 0.923077 0.111111
vt 0.0769231 0.222222
vt 0.153846 0.222222
vt 0.230769 0.222222
vt 0.307692 0.222222
vt 0.384615 0.222222
vt 0.461538 0.222222
vt 0.538462 0.222222
vt 0.615385 0.222222
vt 0.692308 0.222222
vt 0.769231 0.222222
vt 0.846154 0.222222
vt 0.923077 0.222222
vt 0.0769231 0.333333
vt 0.153846 0.333333
vt 0.230769 0.333333
vt 0.307692 0.333333
vt 0.384615 0.333333
vt 0.461538 0.333333
vt 0.538462 0.333333
vt 0.615385 0.333333
vt 0.692308 0.333333
vt 0.769231 0.333333
vt 0.846154 0.333333
vt 0.923077 0.333333
vt 0.0769231 0.444444
vt 0.153846 0.444444
vt 0.230769 0.444444
vt 0.307692 0.444444
vt 0.384615 0.444444
vt 0.461538 0.444444
vt 0.538462 0.444444
vt 0.615385 0.444444
vt 0.692308 0.444444
vt 0.769231 0.444444
vt 0.846154 0.444444
vt 0.923077 0.444444
vt 0.0769231 0.555556
vt 0.153846 0.555556
vt 0.230769 0.555556
vt 0.307692 0.555556
vt 0.384615 0.555556
vt 0.461538 0.555556
vt 0.538462 0.555556
vt 0.615385 0.555556
vt 0.692308 0.555556
vt 0.769231 0.555556
vt 0.846154 0.555556
vt 0.923077 0.555556
vt 0.0769231 0.666667
vt 0.153846 0.666667
vt 0.230769 0.666667
vt 0.307692 0.666667
vt 0.384615 0.666667
vt 0.461538 0.666667
vt 0.538462 0.666667
vt 0.615385 0.666667
vt 0.692308 0.666667
vt 0.769231 0.666667
vt 0.846154 0.666667
vt 0.923077 0.666667
vt 0.0769231 0.777778
vt 0.153846 0.777778
vt 0.230769 0.777778
vt 0.307692 0.777778
vt 0.384615 0.777778
vt 0.461538 0.777778
vt 0.538462 0.777778
vt 0.615385 0.777778
vt 0.692308 0.777778
vt 0.769231 0.777778
vt 0.846154 0.777778
vt 0.923077 0.777778
vt 0 1

# 168 triangles
f 234/86/88 233/74/88 279/75/88
f 237/86/91 283/75/91 296/76/91
f 253/86/103 300/76/103 328/77/103
f 254/86/104 329/77/104 301/78/104
f 238/86/92 297/78/92 286/79/92
f 230/86/86 281/79/86 228/80/86
f 221/86/81 219/80/81 172/81/81
f 215/86/77 168/81/77 156/82/77
f 200/86/66 152/82/66 123/83/66
f 199/86/65 122/83/65 151/84/65
f 216/86/78 155/84/78 170/85/78
f 224/86/83 174/85/83 223/74/83
f 247/74/97 246/62/97 304/63/97
f 288/75/95 245/74/95 304/63/95
f 292/75/122 323/63/122 374/64/122
f 308/76/124 292/75/124 374/64/124
f 318/76/131 378/64/131 392/65/131
f 337/77/135 318/76/135 391/65/135
f 339/77/130 393/65/130 376/66/130
f 319/78/136 338/77/136 376/66/136
f 309/78/126 372/66/126 327/67/126
f 294/79/123 309/78/123 325/67/123
f 291/79/99 307/67/99 241/68/99
f 242/80/93 289/79/93 239/68/93
f 207/80/71 205/68/71 145/69/71
f 164/81/72 208/80/72 146/69/72
f 159/81/45 126/69/45 79/70/45
f 143/82/43 158/81/43 78/70/43
f 132/82/37 73/70/37 58/71/37
f 114/83/39 133/82/39 59/71/39
f 113/83/38 57/71/38 72/72/38
f 131/84/40 112/83/40 72/72/40
f 142/84/48 77/72/48 128/73/48
f 162/85/42 142/84/42 128/73/42
f 166/85/75 148/73/75 212/62/75
f 214/74/76 166/85/76 213/62/76
f 263/62/109 262/50/109 344/51/109
f 314/63/112 266/62/112 344/51/112
f 335/63/142 351/51/142 402/52/142
f 382/64/140 333/63/140 402/52/140
f 387/64/156 414/52/156 434/53/156
f 397/65/158 386/64/158 433/53/158
f 398/65/157 435/53/157 410/54/157
f 384/66/152 399/65/152 410/54/152
f 380/66/143 403/54/143 353/55/143
f 336/67/143 380/66/143 353/55/143
f 315/67/106 345/55/106 256/56/106
f 260/68/111 317/67/111 257/56/111
f 192/68/59 188/56/59 106/57/59
f 135/69/57 190/68/57 106/57/57
f 117/69/29 98/57/29 47/58/29
f 68/70/30 116/69/30 47/58/30
f 64/70/12 38/58/12 17/59/12
f 52/71/10 62/70/10 18/59/10
f 51/71/16 16/59/16 37/60/16
f 63/72/11 53/71/11 37/60/11
f 69/72/28 46/60/28 100/61/28
f 119/73/31 69/72/31 100/61/31
f 138/73/64 108/61/64 198/50/64
f 195/62/62 137/73/62 194/50/62
f 278/50/120 277/38/120 357/39/120
f 348/51/116 275/50/116 356/39/116
f 361/51/145 366/39/145 422/40/145
f 407/52/147 361/51/147 423/40/147
f 418/52/163 429/40/163 445/41/163
f 436/53/166 418/52/166 446/41/166
f 438/53/165 447/41/165 426/42/165
f 415/54/164 437/53/164 425/42/164
f 405/54/149 420/42/149 370/43/149
f 363/55/146 404/54/146 369/43/146
f 349/55/117 360/43/117 270/44/117
f 271/56/114 349/55/114 267/44/114
f 177/56/50 176/44/50 93/45/50
f 102/57/51 179/56/51 92/45/51
f 87/57/23 82/45/23 29/46/23
f 41/58/19 87/57/19 30/46/19
f 34/58/4 23/46/4 4/47/4
f 12/59/6 34/58/6 6/47/6
f 10/59/5 5/47/5 24/48/5
f 33/60/3 11/59/3 22/48/3
f 43/60/22 28/48/22 84/49/22
f 90/61/24 43/60/24 85/49/24
f 104/61/56 96/49/56 186/38/56
f 182/50/53 104/61/53 181/38/53
f 274/38/115 273/26/115 347/27/115
f 355/39/119 276/38/119 347/27/119
f 367/39/150 362/27/150 408/28/150
f 421/40/144 365/39/144 406/28/144
f 427/40/159 416/28/159 439/29/159
f 442/41/160 428/40/160 440/29/160
f 443/41/161 441/29/161 417/30/161
f 424/42/162 444/41/162 417/30/162
f 419/42/148 409/30/148 364/31/148
f 368/43/148 419/42/148 364/31/148
f 359/43/113 350/31/113 268/32/113
f 269/44/118 358/43/118 272/32/118
f 178/44/52 180/32/52 101/33/52
f 91/45/49 175/44/49 101/33/49
f 81/45/18 86/33/18 40/34/18
f 25/46/17 80/45/17 39/34/17
f 19/46/1 32/34/1 8/35/1
f 3/47/8 21/46/8 9/35/8
f 2/47/2 7/35/2 31/36/2
f 20/48/7 1/47/7 31/36/7
f 26/48/20 42/36/20 88/37/20
f 83/49/21 27/48/21 89/37/21
f 94/49/54 103/37/54 183/26/54
f 185/38/55 95/49/55 184/26/55
f 265/26/110 264/14/110 313/15/110
f 343/27/107 261/26/107 313/15/107
f 352/27/137 332/15/137 381/16/137
f 400/28/141 352/27/141 381/16/141
f 412/28/155 385/16/155 395/17/155
f 430/29/153 411/28/153 394/17/153
f 432/29/154 396/17/154 383/18/154
f 413/30/151 431/29/151 383/18/151
f 401/30/139 379/18/139 334/19/139
f 354/31/138 401/30/138 334/19/138
f 346/31/108 316/19/108 259/20/108
f 255/32/105 346/31/105 258/20/105
f 187/32/58 191/20/58 134/21/58
f 105/33/60 189/32/60 134/21/60
f 97/33/32 115/21/32 66/22/32
f 45/34/25 97/33/25 67/22/25
f 36/34/9 61/22/9 49/23/9
f 15/35/13 36/34/13 50/23/13
f 14/35/15 48/23/15 60/24/15
f 35/36/14 13/35/14 60/24/14
f 44/36/27 65/24/27 118/25/27
f 99/37/26 44/36/26 118/25/26
f 107/37/61 136/25/61 193/14/61
f 197/26/63 107/37/63 196/14/63
f 249/14/98 248/2/98 287/3/98
f 305/15/100 250/14/100 287/3/100
f 324/15/128 293/3/128 312/4/128
f 373/16/121 322/15/121 310/4/121
f 377/16/129 320/4/129 340/5/129
f 388/17/132 377/16/132 341/5/132
f 389/17/134 342/5/134 321/6/134
f 375/18/133 390/17/133 321/6/133
f 371/18/125 311/6/125 295/7/125
f 326/19/127 371/18/127 295/7/127
f 306/19/94 290/7/94 243/8/94
f 240/20/96 306/19/96 244/8/96
f 204/20/70 206/8/70 163/9/70
f 144/21/69 203/20/69 163/9/69
f 124/21/41 157/9/41 139/10/41
f 76/22/44 125/21/44 141/10/44
f 71/22/36 130/10/36 111/11/36
f 56/23/34 71/22/34 110/11/34
f 54/23/35 109/11/35 129/12/35
f 70/24/33 55/23/33 129/12/33
f 75/24/47 140/12/47 161/13/47
f 127/25/46 74/24/46 160/13/46
f 147/25/74 165/13/74 211/2/74
f 210/14/73 147/25/73 209/2/73
f 231/1/87 280/3/87 232/2/87
f 236/1/90 298/4/90 284/3/90
f 251/1/101 330/5/101 302/4/101
f 252/1/102 303/6/102 331/5/102
f 235/1/89 285/7/89 299/6/89
f 229/1/85 227/8/85 282/7/85
f 222/1/82 171/9/82 220/8/82
f 217/1/79 154/10/79 167/9/79
f 202/1/68 121/11/68 150/10/68
f 201/1/67 149/12/67 120/11/67
f 218/1/80 169/13/80 153/12/80
f 225/1/84 226/2/84 173/13/84
