<?xml version="1.0" encoding="UTF-8" standalone="no"?>
<!-- Created with Inkscape (http://www.inkscape.org/) -->

<svg
   xmlns:dc="http://purl.org/dc/elements/1.1/"
   xmlns:cc="http://creativecommons.org/ns#"
   xmlns:rdf="http://www.w3.org/1999/02/22-rdf-syntax-ns#"
   xmlns:svg="http://www.w3.org/2000/svg"
   xmlns="http://www.w3.org/2000/svg"
   xmlns:sodipodi="http://sodipodi.sourceforge.net/DTD/sodipodi-0.dtd"
   xmlns:inkscape="http://www.inkscape.org/namespaces/inkscape"
   width="1024"
   height="1024"
   id="svg4351"
   version="1.1"
   inkscape:version="0.48.4 r9939"
   sodipodi:docname="mo_logo.svg"
   inkscape:export-filename="/home/defgsus/prog/qt_project/mo/matrixoptimizer/assets/icon/mo.png"
   inkscape:export-xdpi="22.5"
   inkscape:export-ydpi="22.5">
  <defs
     id="defs4353">
    <filter
       inkscape:collect="always"
       id="filter4939">
      <feGaussianBlur
         inkscape:collect="always"
         stdDeviation="6.795743"
         id="feGaussianBlur4941" />
    </filter>
    <filter
       inkscape:collect="always"
       id="filter4989">
      <feGaussianBlur
         inkscape:collect="always"
         stdDeviation="18.734192"
         id="feGaussianBlur4991" />
    </filter>
  </defs>
  <sodipodi:namedview
     id="base"
     pagecolor="#ffffff"
     bordercolor="#666666"
     borderopacity="1.0"
     inkscape:pageopacity="0"
     inkscape:pageshadow="2"
     inkscape:zoom="0.35"
     inkscape:cx="283.58497"
     inkscape:cy="621.06106"
     inkscape:document-units="px"
     inkscape:current-layer="layer1"
     showgrid="false"
     inkscape:window-width="1600"
     inkscape:window-height="851"
     inkscape:window-x="0"
     inkscape:window-y="25"
     inkscape:window-maximized="1" />
  <metadata
     id="metadata4356">
    <rdf:RDF>
      <cc:Work
         rdf:about="">
        <dc:format>image/svg+xml</dc:format>
        <dc:type
           rdf:resource="http://purl.org/dc/dcmitype/StillImage" />
        <dc:title></dc:title>
      </cc:Work>
    </rdf:RDF>
  </metadata>
  <g
     inkscape:label="outline copy"
     id="g4945"
     inkscape:groupmode="layer"
     sodipodi:insensitive="true">
    <path
       style="fill:none;stroke:#000000;stroke-width:13.06808853;stroke-linejoin:round;stroke-miterlimit:4;stroke-opacity:1;stroke-dasharray:none;stroke-dashoffset:0;filter:url(#filter4989)"
       d="m 649.67835,123.22052 c -21.6366,7.25441 -60.999,35.36649 -101.8017,67.7007 6.7801,13.53441 11.2892,30.21903 -2.6058,45.82604 16.6691,12.07785 13.962,47.12738 -6.4916,51.05538 4.6166,16.67505 -17.3357,47.18622 -35.3212,40.68309 -3.4689,16.31078 -43.3339,23.55669 -56.1961,8.89937 -14.2017,14.36227 -32.924,9.38964 -48.078,-0.81301 -115.4872,147.09777 -202.27861,328.72896 -101.9045,592.42332 18.9958,49.90404 0.6685,19.75837 21.8402,37.74648 82.4417,-7.98012 44.3589,-36.7496 39.8292,-50.8346 -60.0895,-186.81729 363.1788,-582.62552 402.4105,-746.32254 39.2318,-163.6970142 28.9632,-80.480514 -2.531,-99.607244 -31.4942,-19.12672 16.4055,11.14632 -109.15,53.243014 z"
       id="path4947"
       inkscape:connector-curvature="0"
       sodipodi:nodetypes="sccccccsccsss" />
  </g>
  <g
     inkscape:label="Layer 1"
     inkscape:groupmode="layer"
     id="layer1"
     transform="translate(0,-28.362183)">
    <path
       style="fill:#fcff31;fill-opacity:1;stroke:none;stroke-width:13.06808853000000070;stroke-linejoin:round;stroke-miterlimit:4;stroke-opacity:1;stroke-dasharray:none;stroke-dashoffset:0"
       d="m 649.15935,151.70107 c -21.63662,7.2544 -60.99899,35.36648 -101.80168,67.70069 6.78012,13.53441 11.28915,30.21903 -2.60576,45.82604 16.66909,12.07785 13.96198,47.12738 -6.49166,51.05538 4.61665,16.67505 -17.33566,47.18623 -35.32119,40.6831 -3.46886,16.31078 -43.3339,23.55669 -56.19606,8.89937 -14.2017,14.36227 -32.92402,9.38964 -48.07802,-0.81301 -115.4872,147.09777 -202.27862,328.72896 -101.90448,592.42332 18.99576,49.90404 0.66849,19.75837 21.84015,37.74648 82.4417,-7.98012 44.35891,-36.7496 39.82924,-50.8346 C 298.34038,757.57055 721.60865,361.76232 760.84038,198.06529 800.07212,34.368271 789.80352,117.58478 758.30936,98.458044 726.8152,79.331323 774.71488,109.60437 649.15935,151.70107 z"
       id="path4378"
       inkscape:connector-curvature="0"
       sodipodi:nodetypes="sccccccsccsss" />
    <path
       style="fill:#cacd00;fill-opacity:1;stroke:none;filter:url(#filter4939)"
       d="M 615.75242,260.31936 C 557.1245,352.70168 519.95618,360.71979 448.41182,446.53463 334.74278,582.87649 266.82813,767.29424 326.80246,934.58879 c 6.13861,19.90405 2.83237,23.90051 9.71832,51.88862 51.72741,-5.12298 26.17616,-28.66838 21.64649,-42.75338 -60.08951,-186.81729 378.58689,-622.17992 400.98192,-739.89398 30.02735,-157.831469 29.48093,-74.63887 5.32612,-102.46439 -7.92273,-9.12672 -90.88446,67.81543 -148.72289,158.9537 z"
       id="path4378-1"
       inkscape:connector-curvature="0"
       sodipodi:nodetypes="sscccsss" />
    <path
       sodipodi:nodetypes="scccsss"
       inkscape:connector-curvature="0"
       id="path4943"
       d="M 674.32385,281.74793 C 546.67405,470.28895 325.6632,679.23392 338.23103,944.58879 c 6.13861,19.90405 -8.5962,13.90051 -1.71025,41.88862 51.72741,-5.12298 26.17616,-28.66838 21.64649,-42.75338 -60.08951,-186.81729 378.58689,-596.46563 400.98192,-739.89398 24.78566,-158.739049 29.48093,-74.63887 5.32612,-102.46439 -7.92273,-9.12672 -29.63565,90.99936 -90.15146,180.38227 z"
       style="fill:#9b9d00;fill-opacity:1;stroke:none;filter:url(#filter4939)" />
  </g>
  <g
     inkscape:groupmode="layer"
     id="layer2"
     inkscape:label="outline"
     sodipodi:insensitive="true">
    <path
       sodipodi:nodetypes="sccccccsccsss"
       inkscape:connector-curvature="0"
       id="path4906"
       d="m 649.67835,123.22052 c -21.6366,7.25441 -60.999,35.36649 -101.8017,67.7007 6.7801,13.53441 11.2892,30.21903 -2.6058,45.82604 16.6691,12.07785 13.962,47.12738 -6.4916,51.05538 4.6166,16.67505 -17.3357,47.18622 -35.3212,40.68309 -3.4689,16.31078 -43.3339,23.55669 -56.1961,8.89937 -14.2017,14.36227 -32.924,9.38964 -48.078,-0.81301 -115.4872,147.09777 -202.27861,328.72896 -101.9045,592.42332 18.9958,49.90404 0.6685,19.75837 21.8402,37.74648 82.4417,-7.98012 44.3589,-36.7496 39.8292,-50.8346 -60.0895,-186.81729 363.1788,-582.62552 402.4105,-746.32254 39.2318,-163.6970142 28.9632,-80.480514 -2.531,-99.607244 -31.4942,-19.12672 16.4055,11.14632 -109.15,53.243014 z"
       style="fill:none;stroke:#000000;stroke-width:13.06808853;stroke-linejoin:round;stroke-miterlimit:4;stroke-opacity:1;stroke-dasharray:none;stroke-dashoffset:0" />
  </g>
</svg>
