# Blender3D v249 OBJ File: car.blend
# www.blender3d.org
v -0.973387 0.179891 -0.828219
v -0.929556 0.245253 -0.822664
v -0.914165 0.322353 -0.816112
v -0.929556 0.399453 -0.809560
v -0.973387 0.464815 -0.804005
v -1.038985 0.508488 -0.800293
v -1.116363 0.523824 -0.798990
v -1.193741 0.508488 -0.800293
v -1.259339 0.464815 -0.804005
v -1.303170 0.399453 -0.809560
v -1.318561 0.322353 -0.816112
v -1.303170 0.245253 -0.822664
v -1.259339 0.179891 -0.828219
v -1.193741 0.136217 -0.831930
v -1.116363 0.120881 -0.833234
v -1.038985 0.136217 -0.831930
v -0.973387 0.201619 -1.083895
v -0.929556 0.266981 -1.078340
v -0.914165 0.344081 -1.071788
v -0.929557 0.421181 -1.065235
v -0.973388 0.486543 -1.059681
v -1.038985 0.530217 -1.055969
v -1.116363 0.545553 -1.054666
v -1.193741 0.530217 -1.055969
v -1.259339 0.486543 -1.059681
v -1.303170 0.421180 -1.065235
v -1.318561 0.344081 -1.071788
v -1.303169 0.266981 -1.078340
v -1.259338 0.201619 -1.083895
v -1.193740 0.157945 -1.087606
v -1.116362 0.142609 -1.088910
v -1.038985 0.157946 -1.087606
v -1.116363 0.322353 -0.816112
v -1.116363 0.344081 -1.071788
vn 0.000000 -0.084679 0.996408
vn 0.000000 0.084679 -0.996408
vn -0.000000 0.084678 -0.996408
vn -0.000001 0.084679 -0.996408
vn -0.000000 -0.084680 0.996408
vn 0.000000 0.084680 -0.996408
vn 0.000001 0.084678 -0.996408
vn -0.000001 -0.084679 0.996408
vn 0.555572 -0.828482 -0.070408
vn 0.555570 -0.828483 -0.070408
vn 0.195091 -0.977262 -0.083052
vn 0.195093 -0.977262 -0.083052
vn -0.195090 -0.977263 -0.083051
vn -0.195087 -0.977263 -0.083052
vn -0.555570 -0.828483 -0.070408
vn -0.555568 -0.828485 -0.070408
vn -0.831470 -0.553575 -0.047044
vn -0.831468 -0.553577 -0.047046
vn -0.980785 -0.194390 -0.016520
vn -0.980785 -0.194392 -0.016520
vn -0.980785 0.194390 0.016521
vn -0.980786 0.194387 0.016519
vn -0.831470 0.553575 0.047045
vn -0.831470 0.553574 0.047045
vn -0.555570 0.828484 0.070408
vn -0.555572 0.828482 0.070407
vn -0.195090 0.977263 0.083052
vn -0.195092 0.977262 0.083052
vn 0.195090 0.977263 0.083052
vn 0.195089 0.977263 0.083052
vn 0.555570 0.828483 0.070408
vn 0.555569 0.828484 0.070408
vn 0.831470 0.553575 0.047045
vn 0.831469 0.553576 0.047045
vn 0.980785 0.194390 0.016520
vn 0.980785 -0.194390 -0.016520
vn 0.980786 -0.194388 -0.016520
vn 0.831470 -0.553574 -0.047045
vn 0.831470 -0.553575 -0.047045
usemtl (null)
s off
f 33//1 1//1 2//1
f 34//2 18//2 17//2
f 33//1 2//1 3//1
f 34//3 19//3 18//3
f 33//1 3//1 4//1
f 34//3 20//3 19//3
f 33//1 4//1 5//1
f 34//4 21//4 20//4
f 33//1 5//1 6//1
f 34//2 22//2 21//2
f 33//1 6//1 7//1
f 34//2 23//2 22//2
f 33//1 7//1 8//1
f 34//2 24//2 23//2
f 33//1 8//1 9//1
f 34//2 25//2 24//2
f 33//5 9//5 10//5
f 34//2 26//2 25//2
f 33//1 10//1 11//1
f 34//6 27//6 26//6
f 33//1 11//1 12//1
f 34//3 28//3 27//3
f 33//1 12//1 13//1
f 34//6 29//6 28//6
f 33//1 13//1 14//1
f 34//7 30//7 29//7
f 33//1 14//1 15//1
f 34//2 31//2 30//2
f 33//8 15//8 16//8
f 34//2 32//2 31//2
f 16//1 1//1 33//1
f 34//2 17//2 32//2
f 17//9 1//9 32//9
f 1//10 16//10 32//10
f 15//11 31//11 16//11
f 31//12 32//12 16//12
f 14//13 30//13 15//13
f 30//14 31//14 15//14
f 13//15 29//15 14//15
f 29//16 30//16 14//16
f 12//17 28//17 13//17
f 28//18 29//18 13//18
f 11//19 27//19 12//19
f 27//20 28//20 12//20
f 10//21 26//21 11//21
f 26//22 27//22 11//22
f 9//23 25//23 10//23
f 25//24 26//24 10//24
f 8//25 24//25 9//25
f 24//26 25//26 9//26
f 7//27 23//27 8//27
f 23//28 24//28 8//28
f 6//29 22//29 7//29
f 22//30 23//30 7//30
f 5//31 21//31 6//31
f 21//32 22//32 6//32
f 4//33 20//33 5//33
f 20//34 21//34 5//34
f 3//35 19//35 4//35
f 19//35 20//35 4//35
f 2//36 18//36 3//36
f 18//37 19//37 3//37
f 1//38 17//38 18//38
f 1//39 18//39 2//39
v 1.293684 0.179891 -0.795458
v 1.337515 0.245253 -0.789903
v 1.352906 0.322353 -0.783351
v 1.337515 0.399453 -0.776798
v 1.293684 0.464815 -0.771244
v 1.228086 0.508488 -0.767532
v 1.150708 0.523824 -0.766229
v 1.073330 0.508488 -0.767532
v 1.007732 0.464815 -0.771244
v 0.963901 0.399453 -0.776798
v 0.948510 0.322353 -0.783351
v 0.963901 0.245253 -0.789903
v 1.007732 0.179891 -0.795458
v 1.073330 0.136217 -0.799169
v 1.150708 0.120881 -0.800473
v 1.228086 0.136217 -0.799169
v 1.293684 0.201619 -1.051134
v 1.337515 0.266981 -1.045579
v 1.352906 0.344081 -1.039026
v 1.337514 0.421181 -1.032474
v 1.293683 0.486543 -1.026919
v 1.228086 0.530217 -1.023208
v 1.150708 0.545553 -1.021905
v 1.073330 0.530217 -1.023208
v 1.007732 0.486543 -1.026919
v 0.963901 0.421180 -1.032474
v 0.948510 0.344081 -1.039026
v 0.963902 0.266981 -1.045579
v 1.007733 0.201619 -1.051134
v 1.073331 0.157945 -1.054845
v 1.150709 0.142609 -1.056148
v 1.228086 0.157946 -1.054845
v 1.150708 0.322353 -0.783351
v 1.150708 0.344081 -1.039026
vn 0.000001 0.084679 -0.996408
vn -0.000001 0.084678 -0.996408
vn 0.195091 -0.977262 -0.083051
vn -0.831470 -0.553574 -0.047045
vn -0.980785 -0.194392 -0.016521
vn -0.980785 0.194390 0.016520
vn -0.831471 0.553573 0.047044
vn 0.980785 0.194392 0.016520
vn 0.980785 -0.194389 -0.016520
usemtl (null)
s off
f 67//1 35//1 36//1
f 68//2 52//2 51//2
f 67//1 36//1 37//1
f 68//3 53//3 52//3
f 67//1 37//1 38//1
f 68//6 54//6 53//6
f 67//1 38//1 39//1
f 68//6 55//6 54//6
f 67//1 39//1 40//1
f 68//7 56//7 55//7
f 67//1 40//1 41//1
f 68//2 57//2 56//2
f 67//1 41//1 42//1
f 68//2 58//2 57//2
f 67//1 42//1 43//1
f 68//2 59//2 58//2
f 67//5 43//5 44//5
f 68//2 60//2 59//2
f 67//1 44//1 45//1
f 68//3 61//3 60//3
f 67//1 45//1 46//1
f 68//3 62//3 61//3
f 67//1 46//1 47//1
f 68//4 63//4 62//4
f 67//1 47//1 48//1
f 68//2 64//2 63//2
f 67//1 48//1 49//1
f 68//2 65//2 64//2
f 67//8 49//8 50//8
f 68//40 66//40 65//40
f 50//1 35//1 67//1
f 68//41 51//41 66//41
f 51//9 35//9 66//9
f 35//10 50//10 66//10
f 49//42 65//42 50//42
f 65//12 66//12 50//12
f 48//13 64//13 49//13
f 64//14 65//14 49//14
f 47//15 63//15 48//15
f 63//16 64//16 48//16
f 46//43 62//43 47//43
f 62//18 63//18 47//18
f 45//19 61//19 46//19
f 61//44 62//44 46//44
f 44//45 60//45 45//45
f 60//22 61//22 45//22
f 43//23 59//23 44//23
f 59//46 60//46 44//46
f 42//25 58//25 43//25
f 58//26 59//26 43//26
f 41//27 57//27 42//27
f 57//28 58//28 42//28
f 40//29 56//29 41//29
f 56//30 57//30 41//30
f 39//31 55//31 40//31
f 55//32 56//32 40//32
f 38//33 54//33 39//33
f 54//34 55//34 39//34
f 37//35 53//35 38//35
f 53//47 54//47 38//47
f 36//36 52//36 37//36
f 52//48 53//48 37//48
f 35//38 51//38 52//38
f 35//39 52//39 36//39
v 1.274027 0.179891 1.026062
v 1.317858 0.245253 1.031616
v 1.333249 0.322353 1.038169
v 1.317858 0.399453 1.044721
v 1.274027 0.464815 1.050276
v 1.208429 0.508488 1.053987
v 1.131051 0.523824 1.055291
v 1.053674 0.508488 1.053987
v 0.988076 0.464815 1.050276
v 0.944245 0.399453 1.044721
v 0.928853 0.322353 1.038169
v 0.944245 0.245253 1.031616
v 0.988076 0.179891 1.026062
v 1.053674 0.136217 1.022350
v 1.131051 0.120881 1.021047
v 1.208429 0.136217 1.022350
v 1.274027 0.201619 0.770386
v 1.317858 0.266981 0.775941
v 1.333249 0.344081 0.782493
v 1.317858 0.421181 0.789045
v 1.274027 0.486543 0.794600
v 1.208429 0.530217 0.798312
v 1.131051 0.545553 0.799615
v 1.053673 0.530217 0.798311
v 0.988075 0.486543 0.794600
v 0.944245 0.421181 0.789045
v 0.928853 0.344081 0.782493
v 0.944245 0.266981 0.775941
v 0.988076 0.201619 0.770386
v 1.053674 0.157945 0.766674
v 1.131052 0.142609 0.765371
v 1.208430 0.157946 0.766674
v 1.131051 0.322353 1.038169
v 1.131051 0.344081 0.782493
vn 0.000001 -0.084678 0.996408
vn 0.000000 -0.084678 0.996408
vn -0.000001 -0.084678 0.996408
vn -0.555568 -0.828484 -0.070408
vn -0.831470 -0.553575 -0.047045
vn 0.831470 0.553574 0.047045
usemtl (null)
s off
f 101//49 69//49 70//49
f 102//2 86//2 85//2
f 101//5 70//5 71//5
f 102//2 87//2 86//2
f 101//50 71//50 72//50
f 102//2 88//2 87//2
f 101//1 72//1 73//1
f 102//2 89//2 88//2
f 101//1 73//1 74//1
f 102//2 90//2 89//2
f 101//1 74//1 75//1
f 102//2 91//2 90//2
f 101//1 75//1 76//1
f 102//2 92//2 91//2
f 101//1 76//1 77//1
f 102//2 93//2 92//2
f 101//1 77//1 78//1
f 102//2 94//2 93//2
f 101//50 78//50 79//50
f 102//2 95//2 94//2
f 101//5 79//5 80//5
f 102//2 96//2 95//2
f 101//51 80//51 81//51
f 102//2 97//2 96//2
f 101//1 81//1 82//1
f 102//2 98//2 97//2
f 101//1 82//1 83//1
f 102//2 99//2 98//2
f 101//1 83//1 84//1
f 102//2 100//2 99//2
f 84//1 69//1 101//1
f 102//2 85//2 100//2
f 85//9 69//9 100//9
f 69//10 84//10 100//10
f 83//42 99//42 84//42
f 99//12 100//12 84//12
f 82//13 98//13 83//13
f 98//14 99//14 83//14
f 81//15 97//15 82//15
f 97//52 98//52 82//52
f 80//53 96//53 81//53
f 96//18 97//18 81//18
f 79//19 95//19 80//19
f 95//44 96//44 80//44
f 78//45 94//45 79//45
f 94//22 95//22 79//22
f 77//23 93//23 78//23
f 93//46 94//46 78//46
f 76//25 92//25 77//25
f 92//26 93//26 77//26
f 75//27 91//27 76//27
f 91//28 92//28 76//28
f 74//29 90//29 75//29
f 90//30 91//30 75//30
f 73//31 89//31 74//31
f 89//32 90//32 74//32
f 72//54 88//54 73//54
f 88//34 89//34 73//34
f 71//35 87//35 72//35
f 87//47 88//47 72//47
f 70//36 86//36 71//36
f 86//48 87//48 71//48
f 69//38 85//38 86//38
f 69//39 86//39 70//39
v -0.993044 0.179891 0.993301
v -0.949213 0.245253 0.998855
v -0.933822 0.322353 1.005408
v -0.949213 0.399453 1.011960
v -0.993044 0.464815 1.017515
v -1.058642 0.508488 1.021226
v -1.136020 0.523824 1.022529
v -1.213398 0.508488 1.021226
v -1.278995 0.464815 1.017515
v -1.322826 0.399453 1.011960
v -1.338218 0.322353 1.005408
v -1.322826 0.245253 0.998855
v -1.278995 0.179891 0.993301
v -1.213398 0.136217 0.989589
v -1.136020 0.120881 0.988286
v -1.058642 0.136217 0.989589
v -0.993044 0.201619 0.737625
v -0.949213 0.266981 0.743180
v -0.933822 0.344081 0.749732
v -0.949213 0.421181 0.756284
v -0.993044 0.486543 0.761839
v -1.058642 0.530217 0.765550
v -1.136020 0.545553 0.766854
v -1.213398 0.530217 0.765550
v -1.278996 0.486543 0.761839
v -1.322827 0.421181 0.756284
v -1.338218 0.344081 0.749732
v -1.322826 0.266981 0.743179
v -1.278995 0.201619 0.737625
v -1.213397 0.157945 0.733913
v -1.136019 0.142609 0.732610
v -1.058641 0.157946 0.733913
v -1.136020 0.322353 1.005408
v -1.136020 0.344081 0.749732
usemtl (null)
s off
f 135//1 103//1 104//1
f 136//2 120//2 119//2
f 135//1 104//1 105//1
f 136//2 121//2 120//2
f 135//5 105//5 106//5
f 136//2 122//2 121//2
f 135//51 106//51 107//51
f 136//2 123//2 122//2
f 135//1 107//1 108//1
f 136//2 124//2 123//2
f 135//1 108//1 109//1
f 136//2 125//2 124//2
f 135//1 109//1 110//1
f 136//2 126//2 125//2
f 135//1 110//1 111//1
f 136//2 127//2 126//2
f 135//49 111//49 112//49
f 136//2 128//2 127//2
f 135//5 112//5 113//5
f 136//2 129//2 128//2
f 135//1 113//1 114//1
f 136//2 130//2 129//2
f 135//1 114//1 115//1
f 136//2 131//2 130//2
f 135//1 115//1 116//1
f 136//2 132//2 131//2
f 135//1 116//1 117//1
f 136//2 133//2 132//2
f 135//8 117//8 118//8
f 136//2 134//2 133//2
f 118//1 103//1 135//1
f 136//2 119//2 134//2
f 119//9 103//9 134//9
f 103//10 118//10 134//10
f 117//11 133//11 118//11
f 133//12 134//12 118//12
f 116//13 132//13 117//13
f 132//14 133//14 117//14
f 115//15 131//15 116//15
f 131//16 132//16 116//16
f 114//17 130//17 115//17
f 130//18 131//18 115//18
f 113//19 129//19 114//19
f 129//20 130//20 114//20
f 112//21 128//21 113//21
f 128//22 129//22 113//22
f 111//23 127//23 112//23
f 127//24 128//24 112//24
f 110//25 126//25 111//25
f 126//26 127//26 111//26
f 109//27 125//27 110//27
f 125//28 126//28 110//28
f 108//29 124//29 109//29
f 124//30 125//30 109//30
f 107//31 123//31 108//31
f 123//32 124//32 108//32
f 106//33 122//33 107//33
f 122//34 123//34 107//34
f 105//35 121//35 106//35
f 121//35 122//35 106//35
f 104//36 120//36 105//36
f 120//37 121//37 105//37
f 103//38 119//38 120//38
f 103//39 120//39 104//39
v 0.001855 0.306809 -0.023860
v 0.895298 0.306809 -0.023860
v 0.001855 0.306809 0.398634
v -0.891589 0.306809 -0.023860
v 0.001855 0.306809 -0.446354
v 0.895298 0.306809 -0.446354
v 0.895298 0.306809 0.398634
v -0.891589 0.306809 0.398634
v -0.891589 0.306809 -0.446354
v 0.001854 1.493618 -0.023860
v 0.001855 1.493618 -0.446353
v -0.494701 1.493618 -0.023860
v 0.001854 1.493618 0.398634
v 0.508782 1.493618 -0.023859
v 0.508783 1.493618 -0.446353
v -0.494701 1.493618 -0.446354
v -0.494701 1.493618 0.398634
v 0.508782 1.493618 0.398634
v 1.788741 0.669464 -0.023859
v 1.788742 0.669464 -0.446353
v 1.788741 0.850792 -0.023859
v 1.788741 0.669464 0.398634
v 1.788742 0.488137 -0.023860
v 1.788742 0.488137 -0.446353
v 1.788742 0.850792 -0.446353
v 1.788741 0.850792 0.398635
v 1.788741 0.488137 0.398634
v 0.001854 0.669464 0.821128
v 0.895298 0.669464 0.821128
v 0.001854 0.850792 0.821128
v -0.891589 0.669464 0.821128
v 0.001854 0.488137 0.821128
v 0.895298 0.488137 0.821128
v 0.895297 0.850792 0.821128
v -0.891590 0.850792 0.821128
v -0.891589 0.488137 0.821128
v -1.785033 0.669464 -0.023860
v -1.785033 0.669464 0.398634
v -1.785033 0.850792 -0.023860
v -1.785032 0.669464 -0.446354
v -1.785033 0.488137 -0.023860
v -1.785033 0.488137 0.398634
v -1.785033 0.850792 0.398634
v -1.785033 0.850792 -0.446354
v -1.785032 0.488137 -0.446354
v 0.001855 0.669464 -0.868847
v 0.895299 0.669464 -0.868847
v 0.001855 0.488137 -0.868847
v -0.891589 0.669464 -0.868848
v 0.001855 0.850792 -0.868847
v 0.895299 0.850792 -0.868847
v 0.895298 0.488137 -0.868847
v -0.891589 0.488137 -0.868848
v -0.891589 0.850792 -0.868848
v 1.788742 0.306809 -0.446354
v 1.788742 0.306809 -0.023860
v 1.788742 0.306809 0.398634
v 0.895298 0.306809 -0.868847
v 0.001855 0.306809 -0.868848
v -0.891589 0.306809 -0.868848
v 1.788742 0.488137 -0.868847
v 1.788742 0.669464 -0.868847
v 1.788742 0.850792 -0.868847
v 0.895298 0.306809 0.821128
v 0.001854 0.306809 0.821128
v -0.891589 0.306809 0.821128
v 1.788741 0.488137 0.821128
v 1.788741 0.669464 0.821128
v 1.788741 0.850792 0.821128
v -1.785033 0.306809 0.398634
v -1.785032 0.306809 -0.023860
v -1.785032 0.306809 -0.446354
v -1.785033 0.488137 0.821128
v -1.785033 0.669464 0.821128
v -1.785033 0.850792 0.821128
v -1.785032 0.488137 -0.868848
v -1.785032 0.669464 -0.868848
v -1.785032 0.850792 -0.868848
v 1.009266 1.032119 -0.446353
v 1.009265 1.032119 -0.023859
v 1.009264 1.032119 0.398635
v 0.508783 1.493618 -0.868847
v 0.001855 1.493618 -0.868847
v -0.494701 1.493618 -0.868847
v 0.508781 1.493618 0.821128
v 0.001854 1.493618 0.821128
v -0.494702 1.493618 0.821128
v -1.056793 1.032119 0.398634
v -1.056793 1.032119 -0.023860
v -1.056793 1.032119 -0.446354
v 1.788742 0.306809 -0.868847
v 1.788742 0.306809 0.821128
v -1.785033 0.306809 0.821128
v -1.785032 0.306809 -0.868848
v 1.009266 1.032119 -0.868847
v 1.009264 1.032119 0.821129
v -1.056794 1.032119 0.821128
v -1.056793 1.032119 -0.868848
vn 0.000000 0.000000 -1.000000
vn 0.000000 0.000001 -1.000000
vn 0.000001 0.000000 -1.000000
vn -1.000000 -0.000001 -0.000001
vn -1.000000 -0.000001 -0.000000
vn -0.241617 0.970372 -0.000000
vn -1.000000 -0.000000 -0.000000
vn -1.000000 -0.000000 -0.000001
vn -0.000000 0.000000 1.000000
vn -0.000001 0.000001 1.000000
vn -0.000000 0.000001 1.000000
vn -0.000000 -0.000002 1.000000
vn -0.000001 -0.000001 1.000000
vn -0.000000 -0.000001 1.000000
vn 1.000000 0.000001 0.000000
vn 0.226577 0.973993 0.000000
vn 1.000000 0.000002 0.000001
vn 1.000000 -0.000000 0.000000
vn 1.000000 0.000001 0.000001
vn 1.000000 -0.000001 0.000001
vn 1.000000 -0.000000 0.000001
vn 1.000000 -0.000001 0.000000
vn 0.677895 0.735158 0.000001
vn 0.000000 1.000000 0.000000
vn -0.634559 0.772874 -0.000000
vn 0.677895 0.735159 0.000001
vn 0.000000 -1.000000 0.000000
usemtl Material
s off
f 190//55 214//55 234//55
f 190//55 234//55 220//55
f 185//56 213//56 214//56
f 185//55 214//55 190//55
f 186//55 190//55 220//55
f 186//55 220//55 219//55
f 182//55 185//55 190//55
f 182//55 190//55 186//55
f 189//56 196//56 230//56
f 189//55 230//55 212//55
f 184//56 195//56 196//56
f 184//56 196//56 189//56
f 185//55 189//55 212//55
f 185//55 212//55 213//55
f 182//55 184//55 189//55
f 182//55 189//55 185//55
f 188//56 197//56 227//56
f 188//55 227//55 194//55
f 183//55 198//55 197//55
f 183//55 197//55 188//55
f 184//55 188//55 194//55
f 184//56 194//56 195//56
f 182//55 183//55 188//55
f 182//55 188//55 184//55
f 187//57 218//57 231//57
f 187//56 231//56 199//56
f 186//55 219//55 218//55
f 186//55 218//55 187//55
f 183//56 187//56 198//56
f 187//55 199//55 198//55
f 182//55 186//55 187//55
f 182//56 187//56 183//56
f 181//58 212//58 208//58
f 212//58 230//58 208//58
f 176//58 213//58 212//58
f 176//58 212//58 181//58
f 177//58 181//58 208//58
f 177//59 208//59 207//59
f 173//58 176//58 181//58
f 173//58 181//58 177//58
f 180//60 226//60 234//60
f 180//60 234//60 214//60
f 175//60 225//60 180//60
f 225//60 226//60 180//60
f 176//58 180//58 214//58
f 176//58 214//58 213//58
f 173//58 175//58 180//58
f 173//58 180//58 176//58
f 179//60 211//60 233//60
f 179//60 233//60 224//60
f 174//61 210//61 211//61
f 174//59 211//59 179//59
f 175//60 179//60 224//60
f 175//60 224//60 225//60
f 173//58 174//58 179//58
f 173//59 179//59 175//59
f 178//62 206//62 229//62
f 178//58 229//58 209//58
f 177//58 207//58 206//58
f 177//61 206//61 178//61
f 174//58 178//58 209//58
f 174//61 209//61 210//61
f 173//59 177//59 178//59
f 173//58 178//58 174//58
f 172//63 209//63 229//63
f 172//63 229//63 202//63
f 167//63 210//63 209//63
f 167//63 209//63 172//63
f 168//63 172//63 202//63
f 168//63 202//63 201//63
f 164//63 167//63 172//63
f 164//63 172//63 168//63
f 171//64 223//64 233//64
f 171//65 233//65 211//65
f 166//63 222//63 223//63
f 166//63 223//63 171//63
f 167//63 171//63 211//63
f 167//63 211//63 210//63
f 164//63 166//63 167//63
f 166//63 171//63 167//63
f 170//66 205//66 232//66
f 170//67 232//67 221//67
f 165//68 204//68 205//68
f 165//68 205//68 170//68
f 166//63 170//63 221//63
f 166//63 221//63 222//63
f 164//68 165//68 170//68
f 164//63 170//63 166//63
f 169//63 200//63 203//63
f 200//63 228//63 203//63
f 168//63 201//63 169//63
f 201//63 200//63 169//63
f 165//63 169//63 204//63
f 169//68 203//68 204//68
f 164//63 168//63 165//63
f 168//63 169//63 165//63
f 163//69 203//69 228//69
f 163//69 228//69 193//69
f 158//69 204//69 203//69
f 158//69 203//69 163//69
f 159//69 163//69 193//69
f 159//69 193//69 192//69
f 155//69 158//69 163//69
f 155//69 163//69 159//69
f 162//70 217//70 205//70
f 217//70 232//70 205//70
f 157//70 216//70 162//70
f 216//70 217//70 162//70
f 158//69 162//69 204//69
f 162//71 205//71 204//71
f 155//72 157//72 158//72
f 157//73 162//73 158//73
f 161//70 199//70 231//70
f 161//70 231//70 215//70
f 156//74 198//74 199//74
f 156//75 199//75 161//75
f 157//70 161//70 215//70
f 157//70 215//70 216//70
f 155//75 156//75 161//75
f 155//75 161//75 157//75
f 160//75 191//75 197//75
f 191//76 227//76 197//76
f 159//69 192//69 160//69
f 192//72 191//72 160//72
f 156//74 160//74 198//74
f 160//74 197//74 198//74
f 155//73 159//73 156//73
f 159//76 160//76 156//76
f 154//77 221//77 232//77
f 154//77 232//77 217//77
f 149//78 222//78 154//78
f 222//78 221//78 154//78
f 150//77 154//77 217//77
f 150//77 217//77 216//77
f 146//78 149//78 150//78
f 149//78 154//78 150//78
f 153//79 224//79 233//79
f 153//79 233//79 223//79
f 148//79 225//79 224//79
f 148//79 224//79 153//79
f 149//78 153//78 223//78
f 149//78 223//78 222//78
f 146//78 148//78 153//78
f 146//78 153//78 149//78
f 152//79 220//79 234//79
f 152//79 234//79 226//79
f 147//78 219//78 220//78
f 147//78 220//78 152//78
f 148//79 152//79 226//79
f 148//79 226//79 225//79
f 146//78 147//78 148//78
f 147//78 152//78 148//78
f 151//80 215//80 231//80
f 151//80 231//80 218//80
f 150//77 216//77 215//77
f 150//80 215//80 151//80
f 147//78 151//78 218//78
f 147//78 218//78 219//78
f 146//78 150//78 151//78
f 146//78 151//78 147//78
f 145//81 208//81 230//81
f 145//81 230//81 196//81
f 140//81 207//81 208//81
f 140//81 208//81 145//81
f 141//81 145//81 196//81
f 141//81 196//81 195//81
f 137//81 140//81 145//81
f 137//81 145//81 141//81
f 144//81 202//81 206//81
f 202//81 229//81 206//81
f 139//81 201//81 144//81
f 201//81 202//81 144//81
f 140//81 144//81 206//81
f 140//81 206//81 207//81
f 137//81 139//81 144//81
f 137//81 144//81 140//81
f 143//81 193//81 228//81
f 143//81 228//81 200//81
f 138//81 192//81 193//81
f 138//81 193//81 143//81
f 139//81 143//81 200//81
f 139//81 200//81 201//81
f 137//81 138//81 143//81
f 137//81 143//81 139//81
f 142//81 194//81 227//81
f 142//81 227//81 191//81
f 141//81 195//81 194//81
f 141//81 194//81 142//81
f 138//81 142//81 191//81
f 138//81 191//81 192//81
f 137//81 141//81 142//81
f 137//81 142//81 138//81
